<svg width="20" height="20" viewBox="0 0 20 20" fill="none" xmlns="http://www.w3.org/2000/svg">
<path d="M17.8125 17.8125H2.1875" stroke="url(#paint0_linear_1308_26299)" stroke-linecap="round"/>
<path d="M17.0312 17.8125V11.9531C17.0312 11.3059 16.5066 10.7812 15.8594 10.7812H13.5156C12.8684 10.7812 12.3438 11.3059 12.3438 11.9531V17.8125" fill="url(#paint1_linear_1308_26299)"/>
<path d="M17.0312 17.8125V11.9531C17.0312 11.3059 16.5066 10.7812 15.8594 10.7812H13.5156C12.8684 10.7812 12.3438 11.3059 12.3438 11.9531V17.8125" stroke="url(#paint2_linear_1308_26299)" stroke-width="1.2"/>
<path d="M12.3438 17.8125V4.53125C12.3438 3.4264 12.3437 2.87397 12.0005 2.53073C11.6573 2.1875 11.1048 2.1875 10 2.1875C8.89516 2.1875 8.34272 2.1875 7.99948 2.53073C7.65625 2.87397 7.65625 3.4264 7.65625 4.53125V17.8125" fill="url(#paint3_linear_1308_26299)"/>
<path d="M12.3438 17.8125V4.53125C12.3438 3.4264 12.3437 2.87397 12.0005 2.53073C11.6573 2.1875 11.1048 2.1875 10 2.1875C8.89516 2.1875 8.34272 2.1875 7.99948 2.53073C7.65625 2.87397 7.65625 3.4264 7.65625 4.53125V17.8125" stroke="url(#paint4_linear_1308_26299)" stroke-width="1.2"/>
<path d="M7.65625 17.8125V8.04688C7.65625 7.39966 7.13159 6.875 6.48438 6.875H4.14062C3.49341 6.875 2.96875 7.39966 2.96875 8.04688V17.8125" fill="url(#paint5_linear_1308_26299)"/>
<path d="M7.65625 17.8125V8.04688C7.65625 7.39966 7.13159 6.875 6.48438 6.875H4.14062C3.49341 6.875 2.96875 7.39966 2.96875 8.04688V17.8125" stroke="url(#paint6_linear_1308_26299)" stroke-width="1.2"/>
<defs>
<linearGradient id="paint0_linear_1308_26299" x1="10" y1="17.8125" x2="10" y2="18.8125" gradientUnits="userSpaceOnUse">
<stop stop-color="#3A92F0"/>
<stop offset="1" stop-color="#0054AE"/>
</linearGradient>
<linearGradient id="paint1_linear_1308_26299" x1="14.6875" y1="10.7812" x2="14.6875" y2="17.8125" gradientUnits="userSpaceOnUse">
<stop stop-color="#3A92F0"/>
<stop offset="1" stop-color="#0054AE"/>
</linearGradient>
<linearGradient id="paint2_linear_1308_26299" x1="14.6875" y1="10.7812" x2="14.6875" y2="17.8125" gradientUnits="userSpaceOnUse">
<stop stop-color="#3A92F0"/>
<stop offset="1" stop-color="#0054AE"/>
</linearGradient>
<linearGradient id="paint3_linear_1308_26299" x1="10" y1="2.1875" x2="10" y2="17.8125" gradientUnits="userSpaceOnUse">
<stop stop-color="#3A92F0"/>
<stop offset="1" stop-color="#0054AE"/>
</linearGradient>
<linearGradient id="paint4_linear_1308_26299" x1="10" y1="2.1875" x2="10" y2="17.8125" gradientUnits="userSpaceOnUse">
<stop stop-color="#3A92F0"/>
<stop offset="1" stop-color="#0054AE"/>
</linearGradient>
<linearGradient id="paint5_linear_1308_26299" x1="5.3125" y1="6.875" x2="5.3125" y2="17.8125" gradientUnits="userSpaceOnUse">
<stop stop-color="#3A92F0"/>
<stop offset="1" stop-color="#0054AE"/>
</linearGradient>
<linearGradient id="paint6_linear_1308_26299" x1="5.3125" y1="6.875" x2="5.3125" y2="17.8125" gradientUnits="userSpaceOnUse">
<stop stop-color="#3A92F0"/>
<stop offset="1" stop-color="#0054AE"/>
</linearGradient>
</defs>
</svg>
