<svg width="29" height="29" viewBox="0 0 29 29" fill="none" xmlns="http://www.w3.org/2000/svg">
<path d="M20.7505 18.317C20.7283 18.3147 17.508 18.4096 17.0292 14.9589C17.5612 14.5877 18.0515 14.1058 18.4835 13.5211C19.3239 12.3836 19.8654 10.9565 20.0583 9.41302C20.1246 9.35309 20.1794 9.27846 20.2163 9.19058C20.5653 8.35925 20.7423 7.47165 20.7423 6.55223C20.7423 3.02334 18.0802 0.152344 14.8078 0.152344C13.952 0.152344 13.1216 0.349473 12.3375 0.738761C12.0383 0.761597 11.7452 0.814215 11.464 0.895405C10.1201 1.28371 9.02643 2.28012 8.38445 3.70122C7.76122 5.08102 7.6384 6.70531 8.03869 8.27498C8.12327 8.60657 8.2308 8.93239 8.35833 9.24373C8.39286 9.32794 8.44433 9.39977 8.50613 9.4589C8.81856 11.8681 9.96497 13.8643 11.5281 14.9541C11.0478 18.4107 7.82865 18.3148 7.80647 18.3171C5.49072 18.3957 3.63062 20.3027 3.63062 22.6371V27.4966C3.63062 27.8445 3.91261 28.1264 4.2605 28.1264H9.79175H18.7651H24.2964C24.6443 28.1264 24.9264 27.8445 24.9264 27.4966V22.6371C24.9263 20.3026 23.0664 18.3956 20.7505 18.317ZM11.8138 2.10566C12.0437 2.03923 12.2864 1.99983 12.5354 1.98863C12.6278 1.98448 12.7181 1.96006 12.8 1.917C13.4377 1.58197 14.1133 1.4121 14.8078 1.4121C17.3855 1.4121 19.4825 3.71794 19.4825 6.55223C19.4825 6.63731 19.4801 6.7219 19.4764 6.80622C18.9764 6.29856 18.2818 5.98302 17.5147 5.98302H13.2216C12.9661 5.98302 12.7237 5.90279 12.5204 5.75105C12.3468 5.6215 12.2126 5.44735 12.1325 5.24749C12.0083 4.93836 11.7022 4.745 11.3691 4.76593C11.0346 4.78723 10.7532 5.01944 10.6688 5.34393C10.42 6.29985 9.92394 7.1804 9.24332 7.89445C8.61005 5.28831 9.75298 2.70104 11.8138 2.10566ZM11.2658 12.9996C10.4461 11.9983 9.90935 10.6463 9.73919 9.16597C10.534 8.45763 11.1624 7.57611 11.5715 6.59832C11.6336 6.65561 11.6988 6.70973 11.7668 6.76061C12.1895 7.07604 12.6925 7.24281 13.2216 7.24281H17.5148C18.1222 7.24281 18.6458 7.60713 18.8794 8.12852C18.8794 8.13304 18.8787 8.1373 18.8787 8.14177C18.8787 11.6974 16.8155 14.5902 14.2794 14.5902C13.1757 14.5902 12.1054 14.0253 11.2658 12.9996ZM12.7131 15.5726C13.2125 15.7533 13.7378 15.85 14.2794 15.85C14.8168 15.85 15.3418 15.7564 15.8445 15.576C16.0751 16.7775 16.7432 17.8247 17.6764 18.5457L14.3688 23.2558C14.3472 23.2865 14.3172 23.3021 14.2796 23.3021C14.2421 23.3021 14.2121 23.2865 14.1905 23.2558L10.8821 18.5446C11.8153 17.8229 12.4832 16.7749 12.7131 15.5726ZM23.6665 26.8666H18.7651H9.79175H4.89039V22.637C4.89039 20.9475 6.26497 19.573 7.95454 19.573C7.97749 19.573 8.99111 19.5484 9.79202 19.1845L13.1594 23.9797C13.4154 24.3442 13.8341 24.5619 14.2796 24.5619C14.7249 24.5619 15.1438 24.3442 15.3997 23.9797L18.7665 19.1852C19.6799 19.5731 20.5794 19.5731 20.6024 19.5731C22.292 19.5731 23.6665 20.9476 23.6665 22.637V26.8666Z" fill="#333333"/>
</svg>
