<svg width="84" height="12" viewBox="0 0 84 12" fill="none" xmlns="http://www.w3.org/2000/svg">
<path d="M1.604 10H0.484V-0.0100005H4.152C4.77733 -0.0100005 5.32333 0.106666 5.79 0.339999C6.25667 0.573333 6.62067 0.9 6.882 1.32C7.14333 1.74 7.274 2.23467 7.274 2.804C7.274 3.364 7.14333 3.854 6.882 4.274C6.62067 4.694 6.25667 5.02533 5.79 5.268C5.32333 5.50133 4.77733 5.618 4.152 5.618H1.464V4.638H4.152C4.768 4.638 5.24867 4.47467 5.594 4.148C5.94867 3.82133 6.126 3.37333 6.126 2.804C6.126 2.22533 5.94867 1.77733 5.594 1.46C5.24867 1.13333 4.768 0.969999 4.152 0.969999H1.604V10ZM14.2743 10H13.2523V8.656L13.2383 8.264V5.702C13.2383 5.12333 13.061 4.666 12.7063 4.33C12.361 3.98467 11.885 3.812 11.2783 3.812C10.485 3.812 9.81299 4.14333 9.26233 4.806L8.56233 4.12C9.34633 3.29867 10.275 2.888 11.3483 2.888C11.9363 2.888 12.4497 3.00467 12.8883 3.238C13.327 3.462 13.6677 3.784 13.9103 4.204C14.153 4.61467 14.2743 5.1 14.2743 5.66V10ZM10.8163 10.224C10.331 10.224 9.90166 10.1307 9.52833 9.944C9.15499 9.75733 8.86099 9.50067 8.64633 9.174C8.44099 8.838 8.33833 8.46 8.33833 8.04C8.33833 7.34 8.60433 6.78467 9.13633 6.374C9.67766 5.96333 10.401 5.758 11.3063 5.758H13.3643V6.626H11.4323C10.807 6.626 10.3217 6.74733 9.97633 6.99C9.63099 7.22333 9.45833 7.55933 9.45833 7.998C9.45833 8.39933 9.59366 8.72133 9.86433 8.964C10.1443 9.20667 10.513 9.328 10.9703 9.328C11.4183 9.328 11.8197 9.23467 12.1743 9.048C12.529 8.852 12.8137 8.586 13.0283 8.25C13.243 7.90467 13.3643 7.51267 13.3923 7.074L13.7983 7.312C13.7983 7.872 13.6677 8.37133 13.4063 8.81C13.1543 9.24867 12.8043 9.594 12.3563 9.846C11.9083 10.098 11.395 10.224 10.8163 10.224ZM18.9079 10.224C17.5732 10.224 16.5466 9.776 15.8279 8.88L16.5559 8.18C16.8079 8.544 17.1206 8.81933 17.4939 9.006C17.8766 9.19267 18.3012 9.286 18.7679 9.286C19.3186 9.286 19.7572 9.16933 20.0839 8.936C20.4106 8.70267 20.5739 8.38533 20.5739 7.984C20.5739 7.256 20.0372 6.892 18.9639 6.892H17.5499V5.982H18.9919C19.4306 5.982 19.7712 5.89333 20.0139 5.716C20.2659 5.53867 20.3919 5.28667 20.3919 4.96C20.3919 4.60533 20.2426 4.33 19.9439 4.134C19.6452 3.92867 19.2486 3.826 18.7539 3.826C17.8766 3.826 17.1766 4.18533 16.6539 4.904L15.9539 4.218C16.6912 3.33133 17.6339 2.888 18.7819 2.888C19.3232 2.888 19.7992 2.972 20.2099 3.14C20.6206 3.29867 20.9379 3.52733 21.1619 3.826C21.3952 4.11533 21.5119 4.456 21.5119 4.848C21.5119 5.24933 21.3906 5.59 21.1479 5.87C20.9146 6.15 20.5786 6.35533 20.1399 6.486V6.262C20.6346 6.39267 21.0172 6.61667 21.2879 6.934C21.5586 7.25133 21.6939 7.62933 21.6939 8.068C21.6939 8.47867 21.5726 8.84733 21.3299 9.174C21.0872 9.50067 20.7559 9.75733 20.3359 9.944C19.9252 10.1307 19.4492 10.224 18.9079 10.224ZM23.6509 10V3.112H24.8829L27.4869 8.488H27.1789L29.7829 3.112H31.0709V10H30.0069V4.47L30.1469 4.498L27.7809 9.37H26.8429L24.5469 4.61L24.6869 4.596V10H23.6509ZM38.6897 8.026L39.4177 8.726C39.0537 9.23 38.6243 9.608 38.1297 9.86C37.6443 10.1027 37.1077 10.224 36.5197 10.224C35.829 10.224 35.2177 10.0653 34.6857 9.748C34.163 9.43067 33.7523 8.99667 33.4537 8.446C33.1643 7.886 33.0197 7.256 33.0197 6.556C33.0197 5.856 33.1643 5.23067 33.4537 4.68C33.7523 4.12 34.1537 3.68133 34.6577 3.364C35.171 3.04667 35.745 2.888 36.3797 2.888C37.005 2.888 37.5557 3.042 38.0317 3.35C38.517 3.658 38.895 4.08733 39.1657 4.638C39.4363 5.17933 39.5717 5.80467 39.5717 6.514V6.598H38.4797V6.5C38.4797 5.69733 38.2883 5.05333 37.9057 4.568C37.523 4.07333 37.0143 3.826 36.3797 3.826C35.9503 3.826 35.563 3.94267 35.2177 4.176C34.8817 4.4 34.6157 4.71733 34.4197 5.128C34.233 5.53867 34.1397 6.01 34.1397 6.542C34.1397 7.074 34.2377 7.54533 34.4337 7.956C34.639 8.36667 34.9237 8.69333 35.2877 8.936C35.661 9.16933 36.095 9.286 36.5897 9.286C37.019 9.286 37.4063 9.18333 37.7517 8.978C38.097 8.77267 38.4097 8.45533 38.6897 8.026ZM39.5717 6.934H33.8737V6.052H39.3617L39.5717 6.514V6.934ZM45.4401 9.496V3.112H46.5181V9.496H45.4401ZM49.3601 9.496V3.112H50.4381V9.496H49.3601ZM41.5201 10V3.112H42.5981V9.44L42.2481 9.09H51.3201V11.778H50.2981V9.65L50.6481 10H41.5201ZM58.1037 8.026L58.8317 8.726C58.4677 9.23 58.0384 9.608 57.5437 9.86C57.0584 10.1027 56.5217 10.224 55.9337 10.224C55.2431 10.224 54.6317 10.0653 54.0997 9.748C53.5771 9.43067 53.1664 8.99667 52.8677 8.446C52.5784 7.886 52.4337 7.256 52.4337 6.556C52.4337 5.856 52.5784 5.23067 52.8677 4.68C53.1664 4.12 53.5677 3.68133 54.0717 3.364C54.5851 3.04667 55.1591 2.888 55.7937 2.888C56.4191 2.888 56.9697 3.042 57.4457 3.35C57.9311 3.658 58.3091 4.08733 58.5797 4.638C58.8504 5.17933 58.9857 5.80467 58.9857 6.514V6.598H57.8937V6.5C57.8937 5.69733 57.7024 5.05333 57.3197 4.568C56.9371 4.07333 56.4284 3.826 55.7937 3.826C55.3644 3.826 54.9771 3.94267 54.6317 4.176C54.2957 4.4 54.0297 4.71733 53.8337 5.128C53.6471 5.53867 53.5537 6.01 53.5537 6.542C53.5537 7.074 53.6517 7.54533 53.8477 7.956C54.0531 8.36667 54.3377 8.69333 54.7017 8.936C55.0751 9.16933 55.5091 9.286 56.0037 9.286C56.4331 9.286 56.8204 9.18333 57.1657 8.978C57.5111 8.77267 57.8237 8.45533 58.1037 8.026ZM58.9857 6.934H53.2877V6.052H58.7757L58.9857 6.514V6.934ZM60.9341 10V3.112H62.0121V10H60.9341ZM65.7501 10V3.112H66.8281V10H65.7501ZM61.4101 6.836V5.926H66.3941V6.836H61.4101ZM69.2056 10V3.112H70.2836V8.628L70.1716 8.502L74.2316 3.112H75.1696V10H74.0916V4.512L74.1896 4.638L70.1436 10H69.2056ZM82.7815 8.026L83.5095 8.726C83.1455 9.23 82.7161 9.608 82.2215 9.86C81.7361 10.1027 81.1995 10.224 80.6115 10.224C79.9208 10.224 79.3095 10.0653 78.7775 9.748C78.2548 9.43067 77.8441 8.99667 77.5455 8.446C77.2561 7.886 77.1115 7.256 77.1115 6.556C77.1115 5.856 77.2561 5.23067 77.5455 4.68C77.8441 4.12 78.2455 3.68133 78.7495 3.364C79.2628 3.04667 79.8368 2.888 80.4715 2.888C81.0968 2.888 81.6475 3.042 82.1235 3.35C82.6088 3.658 82.9868 4.08733 83.2575 4.638C83.5281 5.17933 83.6635 5.80467 83.6635 6.514V6.598H82.5715V6.5C82.5715 5.69733 82.3801 5.05333 81.9975 4.568C81.6148 4.07333 81.1061 3.826 80.4715 3.826C80.0421 3.826 79.6548 3.94267 79.3095 4.176C78.9735 4.4 78.7075 4.71733 78.5115 5.128C78.3248 5.53867 78.2315 6.01 78.2315 6.542C78.2315 7.074 78.3295 7.54533 78.5255 7.956C78.7308 8.36667 79.0155 8.69333 79.3795 8.936C79.7528 9.16933 80.1868 9.286 80.6815 9.286C81.1108 9.286 81.4981 9.18333 81.8435 8.978C82.1888 8.77267 82.5015 8.45533 82.7815 8.026ZM83.6635 6.934H77.9655V6.052H83.4535L83.6635 6.514V6.934Z" fill="#333333"/>
</svg>
