<svg width="24" height="24" viewBox="0 0 24 24" fill="none" xmlns="http://www.w3.org/2000/svg">
<path d="M9.37216 16.6024L4.06686 19.8899C3.6203 20.1667 3 19.8897 3 19.4136V8.82199C3 7.71877 4.03088 6.82444 5.30254 6.82444H13.4418C14.7134 6.82444 15.7443 7.71877 15.7443 8.82199V19.4136C15.7443 19.8897 15.124 20.1667 14.6775 19.8899L9.37216 16.6024ZM7.74431 5.17066C7.37168 5.17066 7.06961 4.9086 7.06961 4.58533C7.06961 4.26206 7.37168 4 7.74431 4H16.6975C17.9691 4 19 4.89433 19 5.99755V17.2953C19 17.6186 18.6979 17.8806 18.3253 17.8806C17.9527 17.8806 17.6506 17.6186 17.6506 17.2953V5.99755C17.6506 5.54087 17.2239 5.17066 16.6975 5.17066H7.74431Z" fill="#603F99"/>
</svg>
