<svg width="16" height="16" viewBox="0 0 16 16" fill="none" xmlns="http://www.w3.org/2000/svg">
<g clip-path="url(#clip0_2216_88)">
<path d="M8.60217 7.39695V14.6339C8.60217 15.0981 8.09961 15.3883 7.69756 15.1562C7.51097 15.0484 7.39602 14.8493 7.39602 14.6339V7.39695C7.39602 6.9327 7.89859 6.64255 8.30064 6.87467C8.48723 6.9824 8.60217 7.18149 8.60217 7.39695ZM13.4268 12.8246C13.0937 12.8246 12.8237 13.0946 12.8237 13.4277V14.6339C12.8237 15.0981 13.3263 15.3883 13.7283 15.1562C13.9149 15.0484 14.0299 14.8493 14.0299 14.6339V13.4277C14.0299 13.0947 13.7598 12.8247 13.4268 12.8246ZM15.236 10.4123H14.0299V1.36619C14.0299 0.901935 13.5273 0.611779 13.1253 0.843904C12.9387 0.951629 12.8237 1.15072 12.8237 1.36619V10.4123H11.6176C11.1533 10.4123 10.8632 10.9149 11.0953 11.317C11.203 11.5035 11.4021 11.6185 11.6176 11.6185H15.236C15.7003 11.6185 15.9904 11.1159 15.7583 10.7139C15.6506 10.5273 15.4515 10.4123 15.236 10.4123ZM2.5714 10.4123C2.23832 10.4123 1.96833 10.6823 1.96833 11.0154V14.6339C1.96833 15.0981 2.47089 15.3883 2.87294 15.1562C3.05954 15.0484 3.17448 14.8493 3.17448 14.6339V11.0154C3.17448 10.6823 2.90449 10.4123 2.5714 10.4123ZM4.38064 8.00003H3.17449V1.36619C3.17449 0.901935 2.67192 0.611779 2.26987 0.843904C2.08327 0.951629 1.96833 1.15072 1.96833 1.36619V8.00003H0.762173C0.297923 8.00005 0.00776687 8.50263 0.239911 8.90467C0.347642 9.09125 0.546723 9.20618 0.762173 9.20618H4.38064C4.84489 9.20618 5.13504 8.70362 4.90292 8.30157C4.79519 8.11499 4.59609 8.00004 4.38064 8.00003ZM9.80833 4.38157H8.60217V1.36619C8.60217 0.901935 8.09961 0.611779 7.69756 0.843904C7.51097 0.951629 7.39602 1.15072 7.39602 1.36619V4.38157H6.18987C5.72562 4.38157 5.43546 4.88413 5.66759 5.28619C5.77532 5.47277 5.97441 5.58772 6.18987 5.58772H9.80833C10.2726 5.58772 10.5627 5.08515 10.3306 4.6831C10.2229 4.49651 10.0238 4.38157 9.80833 4.38157Z" fill="#0054AE"/>
</g>
<defs>
<clipPath id="clip0_2216_88">
<rect width="16" height="16" fill="white"/>
</clipPath>
</defs>
</svg>
