<svg width="38" height="38" viewBox="0 0 38 38" fill="none" xmlns="http://www.w3.org/2000/svg">
<path fill-rule="evenodd" clip-rule="evenodd" d="M19.087 7.96387C16.1592 7.96387 15.7921 7.97602 14.6422 8.0274C13.4948 8.07864 12.7111 8.25712 12.0254 8.5181C11.3165 8.78784 10.7153 9.14881 10.1159 9.73569C9.51658 10.3226 9.14796 10.9113 8.8725 11.6055C8.60599 12.277 8.42373 13.0444 8.37139 14.168C8.31893 15.294 8.30652 15.6535 8.30652 18.5206C8.30652 21.3876 8.31893 21.7471 8.37139 22.8731C8.42373 23.9967 8.60599 24.7641 8.8725 25.4356C9.14796 26.1298 9.51658 26.7185 10.1159 27.3054C10.7153 27.8923 11.3165 28.2533 12.0254 28.523C12.7111 28.784 13.4948 28.9625 14.6422 29.0137C15.7921 29.0651 16.1592 29.0772 19.087 29.0772C22.0148 29.0772 22.3819 29.0651 23.5318 29.0137C24.6793 28.9625 25.4629 28.784 26.1486 28.523C26.8576 28.2533 27.4588 27.8923 28.0581 27.3054C28.6574 26.7185 29.0261 26.1298 29.3016 25.4356C29.568 24.7641 29.7503 23.9967 29.8026 22.8731C29.8551 21.7471 29.8675 21.3876 29.8675 18.5206C29.8675 15.6535 29.8551 15.294 29.8026 14.168C29.7503 13.0444 29.568 12.277 29.3016 11.6055C29.0261 10.9113 28.6574 10.3226 28.0581 9.73569C27.4588 9.14881 26.8576 8.78784 26.1486 8.5181C25.4629 8.25712 24.6793 8.07864 23.5318 8.0274C22.3819 7.97602 22.0148 7.96387 19.087 7.96387ZM19.0874 9.86719C21.9658 9.86719 22.3068 9.87796 23.4436 9.92875C24.4947 9.97568 25.0655 10.1477 25.4454 10.2922C25.9486 10.4837 26.3077 10.7125 26.6849 11.0819C27.0622 11.4513 27.2958 11.803 27.4914 12.2957C27.639 12.6677 27.8146 13.2267 27.8625 14.256C27.9144 15.3691 27.9254 15.703 27.9254 18.5218C27.9254 21.3405 27.9144 21.6744 27.8625 22.7876C27.8146 23.8168 27.639 24.3758 27.4914 24.7478C27.2958 25.2406 27.0622 25.5922 26.6849 25.9616C26.3077 26.331 25.9486 26.5598 25.4454 26.7513C25.0655 26.8959 24.4947 27.0679 23.4436 27.1148C22.307 27.1656 21.9661 27.1763 19.0874 27.1763C16.2086 27.1763 15.8677 27.1656 14.7311 27.1148C13.68 27.0679 13.1092 26.8959 12.7293 26.7513C12.2261 26.5598 11.867 26.331 11.4898 25.9616C11.1125 25.5922 10.8789 25.2406 10.6833 24.7478C10.5357 24.3758 10.3601 23.8168 10.3121 22.7876C10.2603 21.6744 10.2493 21.3405 10.2493 18.5218C10.2493 15.703 10.2603 15.3691 10.3121 14.256C10.3601 13.2267 10.5357 12.6677 10.6833 12.2957C10.8789 11.803 11.1125 11.4513 11.4898 11.0819C11.867 10.7125 12.2261 10.4837 12.7293 10.2922C13.1092 10.1477 13.68 9.97568 14.7311 9.92875C15.8678 9.87796 16.2088 9.86719 19.0874 9.86719ZM13.5504 18.52C13.5504 15.5258 16.0289 13.0986 19.0864 13.0986C22.1438 13.0986 24.6223 15.5258 24.6223 18.52C24.6223 21.5141 22.1438 23.9413 19.0864 23.9413C16.0289 23.9413 13.5504 21.5141 13.5504 18.52ZM19.0868 22.0406C17.1021 22.0406 15.4933 20.4649 15.4933 18.5212C15.4933 16.5774 17.1021 15.0018 19.0868 15.0018C21.0714 15.0018 22.6803 16.5774 22.6803 18.5212C22.6803 20.4649 21.0714 22.0406 19.0868 22.0406ZM24.8414 14.1512C25.5558 14.1512 26.1351 13.5839 26.1351 12.8842C26.1351 12.1845 25.5558 11.6172 24.8414 11.6172C24.1269 11.6172 23.5477 12.1845 23.5477 12.8842C23.5477 13.5839 24.1269 14.1512 24.8414 14.1512Z" fill="white"/>
</svg>
