<svg width="16" height="16" viewBox="0 0 16 16" fill="none" xmlns="http://www.w3.org/2000/svg">
<path d="M15.265 3.74996C15.193 3.70503 15.1108 3.67916 15.026 3.67479C14.9413 3.67042 14.8569 3.68768 14.7806 3.72496C12.0975 5.03746 10.1813 4.42246 8.15563 3.77371C6.03063 3.09308 3.8275 2.38996 0.78375 3.87621C0.698706 3.917 0.626936 3.98102 0.576727 4.06086C0.526518 4.14071 0.499919 4.23313 0.5 4.32745V11.8231C0.499988 11.9079 0.521562 11.9914 0.56269 12.0656C0.603819 12.1398 0.66315 12.2023 0.7351 12.2472C0.80705 12.2922 0.889253 12.3181 0.973972 12.3225C1.05869 12.3269 1.14314 12.3097 1.21938 12.2725C3.9025 10.96 5.81875 11.575 7.8475 12.2237C9.05 12.6081 10.275 13 11.66 13C12.7281 13 13.8931 12.7675 15.2169 12.1212C15.301 12.0802 15.3718 12.0163 15.4214 11.937C15.471 11.8577 15.4974 11.766 15.4975 11.6725V4.17683C15.4983 4.09178 15.4773 4.00793 15.4366 3.93324C15.3959 3.85854 15.3369 3.79546 15.265 3.74996ZM14.5 11.3543C11.9625 12.49 10.1094 11.8975 8.1525 11.2718C6.95 10.8875 5.725 10.4956 4.34 10.4956C3.36694 10.5003 2.40378 10.6912 1.5025 11.0581V4.64558C4.04 3.50996 5.89313 4.10246 7.85 4.72808C9.80688 5.35371 11.8212 5.99995 14.5 4.94308V11.3543ZM8 5.99996C7.60444 5.99996 7.21776 6.11725 6.88886 6.33702C6.55996 6.55678 6.30362 6.86914 6.15224 7.23459C6.00087 7.60004 5.96126 8.00217 6.03843 8.39014C6.1156 8.7781 6.30608 9.13446 6.58579 9.41417C6.86549 9.69387 7.22186 9.88436 7.60982 9.96153C7.99778 10.0387 8.39991 9.99909 8.76537 9.84771C9.13082 9.69634 9.44318 9.43999 9.66294 9.1111C9.8827 8.7822 10 8.39552 10 7.99996C10 7.46952 9.78929 6.96081 9.41421 6.58574C9.03914 6.21067 8.53043 5.99996 8 5.99996ZM8 8.99996C7.80222 8.99996 7.60888 8.94131 7.44443 8.83142C7.27998 8.72154 7.15181 8.56536 7.07612 8.38264C7.00043 8.19991 6.98063 7.99885 7.01921 7.80486C7.0578 7.61088 7.15304 7.4327 7.29289 7.29285C7.43275 7.153 7.61093 7.05775 7.80491 7.01917C7.99889 6.98058 8.19996 7.00039 8.38268 7.07608C8.56541 7.15176 8.72159 7.27994 8.83147 7.44439C8.94135 7.60883 9 7.80217 9 7.99996C9 8.26517 8.89464 8.51953 8.70711 8.70706C8.51957 8.8946 8.26522 8.99996 8 8.99996ZM3.5 5.99996V8.99996C3.5 9.13256 3.44732 9.25974 3.35355 9.35351C3.25979 9.44728 3.13261 9.49996 3 9.49996C2.86739 9.49996 2.74022 9.44728 2.64645 9.35351C2.55268 9.25974 2.5 9.13256 2.5 8.99996V5.99996C2.5 5.86735 2.55268 5.74017 2.64645 5.6464C2.74022 5.55263 2.86739 5.49996 3 5.49996C3.13261 5.49996 3.25979 5.55263 3.35355 5.6464C3.44732 5.74017 3.5 5.86735 3.5 5.99996ZM12.5 9.99996V6.99996C12.5 6.86735 12.5527 6.74017 12.6464 6.6464C12.7402 6.55263 12.8674 6.49996 13 6.49996C13.1326 6.49996 13.2598 6.55263 13.3536 6.6464C13.4473 6.74017 13.5 6.86735 13.5 6.99996V9.99996C13.5 10.1326 13.4473 10.2597 13.3536 10.3535C13.2598 10.4473 13.1326 10.5 13 10.5C12.8674 10.5 12.7402 10.4473 12.6464 10.3535C12.5527 10.2597 12.5 10.1326 12.5 9.99996Z" fill="#0054AE"/>
</svg>

