<svg width="20" height="20" viewBox="0 0 20 20" fill="none" xmlns="http://www.w3.org/2000/svg">
<g clip-path="url(#clip0_112_6012)">
<path d="M17.6562 4.6875C18.3125 4.6875 18.75 5.125 18.75 5.78125C18.75 6.4375 18.3125 6.875 17.6562 6.875H13.2812C12.625 6.875 12.1875 6.4375 12.1875 5.78125C12.1875 5.125 12.625 4.6875 13.2812 4.6875H17.6562ZM6.71875 2.5C8.57812 2.5 10 3.92188 10 5.78125C10 7.64062 8.57812 9.0625 6.71875 9.0625C5.29688 9.0625 4.09375 8.07812 3.65625 6.875C3.54688 6.875 3.54688 6.875 3.4375 6.875H2.34375C1.6875 6.875 1.25 6.4375 1.25 5.78125C1.25 5.125 1.6875 4.6875 2.34375 4.6875H3.4375C3.54688 4.6875 3.54688 4.6875 3.65625 4.6875C4.09375 3.48438 5.29688 2.5 6.71875 2.5ZM2.34375 15.625C1.6875 15.625 1.25 15.1875 1.25 14.5312C1.25 13.875 1.6875 13.4375 2.34375 13.4375H6.71875C7.375 13.4375 7.8125 13.875 7.8125 14.5312C7.8125 15.1875 7.375 15.625 6.71875 15.625H2.34375ZM17.6562 13.4375C18.3125 13.4375 18.75 13.875 18.75 14.5312C18.75 15.1875 18.3125 15.625 17.6562 15.625H16.5625C16.4531 15.625 16.4531 15.625 16.3438 15.625C15.9062 16.8281 14.7031 17.8125 13.2812 17.8125C11.4219 17.8125 10 16.3906 10 14.5312C10 12.6719 11.4219 11.25 13.2812 11.25C14.7031 11.25 15.9062 12.125 16.3438 13.4375C16.4531 13.4375 16.4531 13.4375 16.5625 13.4375H17.6562Z" fill="#0054AE"/>
</g>
<defs>
<clipPath id="clip0_112_6012">
<rect width="20" height="20" fill="white"/>
</clipPath>
</defs>
</svg>
