<svg width="16" height="16" viewBox="0 0 16 16" fill="none" xmlns="http://www.w3.org/2000/svg">
<path d="M12.8241 0.160034H5.58721C4.92107 0.160034 4.38106 0.700047 4.38106 1.36618V2.57234H3.1749C2.50876 2.57234 1.96875 3.11235 1.96875 3.77849V15.2369C1.96874 15.7012 2.47129 15.9914 2.87335 15.7592C2.89019 15.7495 2.90654 15.739 2.92236 15.7277L6.79336 12.9626L10.6651 15.7277C11.0433 15.997 11.5711 15.7559 11.6152 15.2937C11.617 15.2748 11.618 15.2559 11.618 15.2369V12.2736L13.0767 13.3154C13.4544 13.5852 13.9827 13.3449 14.0275 12.8829C14.0293 12.8635 14.0303 12.8441 14.0303 12.8246V1.36618C14.0303 0.700047 13.4903 0.160034 12.8241 0.160034ZM10.4118 14.0655L7.14314 11.7285C6.93345 11.5788 6.65176 11.5788 6.44207 11.7285L3.1749 14.0647V3.77849H10.4118V14.0655ZM12.8241 11.6532L11.618 10.7893V3.77849C11.618 3.11235 11.078 2.57234 10.4118 2.57234H5.58721V1.36618H12.8241V11.6532Z" fill="#0054AE"/>
</svg>
