<svg width="16" height="16" viewBox="0 0 16 16" fill="none" xmlns="http://www.w3.org/2000/svg">
<g clip-path="url(#clip0_2215_73)">
<path d="M15.7827 6.1281C15.6395 5.68796 15.2458 5.37705 14.7845 5.33985L10.6542 5.00664L9.05952 1.1501C8.7248 0.334492 7.63267 0.187086 7.09368 0.884773C7.03097 0.965961 6.97945 1.0552 6.9405 1.1501L5.3472 5.00594L1.21486 5.33985C0.330996 5.4146 -0.140498 6.41814 0.366171 7.1462C0.421221 7.2253 0.485977 7.29719 0.558921 7.36017L3.70911 10.0784L2.74935 14.1429C2.54085 15.0006 3.33905 15.7624 4.18611 15.5141C4.28398 15.4854 4.37759 15.4438 4.46445 15.3903L7.99966 13.2146L11.537 15.3903C12.2922 15.8494 13.2611 15.3187 13.281 14.4351C13.2832 14.3368 13.2728 14.2386 13.25 14.1429L12.2867 10.0777L15.4369 7.35947C15.7908 7.05686 15.9273 6.57072 15.7827 6.1281ZM14.7089 6.51102L11.2997 9.4512C11.1412 9.5878 11.0721 9.80137 11.1204 10.0049L12.1621 14.4012C12.1677 14.4138 12.1625 14.4285 12.1502 14.4348C12.1376 14.4446 12.1341 14.4425 12.1236 14.4348L8.29298 12.0792C8.11307 11.9685 7.88625 11.9685 7.70634 12.0792L3.87572 14.4362C3.86522 14.4425 3.86241 14.4446 3.84911 14.4362C3.83685 14.4299 3.83161 14.4152 3.83721 14.4026L4.87888 10.0063C4.92727 9.80277 4.85815 9.5892 4.69967 9.4526L1.29046 6.51242C1.28206 6.50542 1.27436 6.49912 1.28136 6.47742C1.28837 6.45572 1.29396 6.45852 1.30446 6.45712L5.77913 6.0959C5.98838 6.07795 6.17 5.94444 6.24956 5.75008L7.97306 1.57713C7.97866 1.56523 7.98076 1.55963 7.99756 1.55963C8.01436 1.55963 8.01646 1.56523 8.02206 1.57713L9.74977 5.75008C9.83008 5.94453 10.0126 6.07756 10.2223 6.0945L14.697 6.45572C14.7075 6.45572 14.7138 6.45572 14.7201 6.47602C14.7264 6.49632 14.7201 6.50402 14.7089 6.51102Z" fill="#0054AE"/>
</g>
<defs>
<clipPath id="clip0_2215_73">
<rect width="16" height="16" fill="white"/>
</clipPath>
</defs>
</svg>


