<svg width="24" height="24" viewBox="0 0 24 24" fill="none" xmlns="http://www.w3.org/2000/svg">
<path d="M4.76321 5.96925C5.09626 5.96925 5.36626 6.23926 5.36627 6.57231C5.37043 10.2342 8.33798 13.2018 11.9999 13.206L17.781 13.206L15.1916 10.6173C14.8632 10.2889 15.0134 9.72805 15.4621 9.60783C15.6703 9.55203 15.8925 9.61157 16.0449 9.764L19.6633 13.3823C19.8991 13.6179 19.8991 14.0001 19.6633 14.2357L16.0449 17.854C15.7165 18.1825 15.1557 18.0322 15.0354 17.5835C14.9796 17.3753 15.0392 17.1531 15.1916 17.0007L17.781 14.4121L11.9999 14.4121C7.67203 14.4075 4.16473 10.9002 4.16016 6.57231C4.16016 6.23925 4.43016 5.96925 4.76321 5.96925Z" fill="#0054AE"/>
</svg>

