<svg width="16" height="16" viewBox="0 0 16 16" fill="none" xmlns="http://www.w3.org/2000/svg">
<path d="M0.763212 1.96925C1.09626 1.96925 1.36626 2.23926 1.36627 2.57231C1.37043 6.23425 4.33798 9.2018 7.99992 9.20595L13.781 9.20595L11.1916 6.61732C10.8632 6.28888 11.0134 5.72805 11.4621 5.60783C11.6703 5.55203 11.8925 5.61157 12.0449 5.764L15.6633 9.38235C15.8991 9.61791 15.8991 10.0001 15.6633 10.2357L12.0449 13.854C11.7165 14.1825 11.1557 14.0322 11.0354 13.5835C10.9796 13.3753 11.0392 13.1531 11.1916 13.0007L13.781 10.4121L7.99992 10.4121C3.67203 10.4075 0.164731 6.90019 0.160156 2.57231C0.160156 2.23925 0.430156 1.96925 0.763212 1.96925Z" fill="#0054AE"/>
</svg>
