<svg width="38" height="38" viewBox="0 0 38 38" fill="none" xmlns="http://www.w3.org/2000/svg">
<path d="M27.3637 10.1328C27.3637 10.1328 29.4458 9.33785 29.2722 11.2686C29.2144 12.0636 28.6939 14.846 28.2891 17.8557L26.9011 26.771C26.9011 26.771 26.7854 28.077 25.7444 28.3042C24.7033 28.5313 23.1419 27.5092 22.8526 27.282C22.6213 27.1117 18.5151 24.5563 17.0692 23.3071C16.6644 22.9663 16.2017 22.2849 17.1271 21.4899L23.1997 15.8114C23.8937 15.13 24.5877 13.54 21.696 15.4707L13.5992 20.8653C13.5992 20.8653 12.6739 21.4331 10.9389 20.9221L7.17962 19.7864C7.17962 19.7864 5.79159 18.9346 8.1628 18.0828C13.9462 15.4139 21.0598 12.6882 27.3637 10.1328Z" fill="white"/>
</svg>
