<svg width="243" height="80" viewBox="0 0 243 80" fill="none" xmlns="http://www.w3.org/2000/svg">
<g clip-path="url(#clip0_1846_147)">
<rect width="50" height="57.73" transform="matrix(0 1 -0.866026 0.5 54.6719 0.77002)" fill="url(#paint0_linear_1846_147)"/>
<rect width="242" height="60" transform="translate(0.671875 0.199951)" fill="url(#paint1_linear_1846_147)"/>
<g clip-path="url(#clip1_1846_147)">
<g clip-path="url(#clip2_1846_147)">
<mask id="mask0_1846_147" style="mask-type:luminance" maskUnits="userSpaceOnUse" x="15" y="20" width="21" height="22">
<path d="M35.6719 20.2H15.6719V41.2H35.6719V20.2Z" fill="white"/>
<path fill-rule="evenodd" clip-rule="evenodd" d="M18.6854 28.9556C18.3833 34.36 23.2172 37.3704 25.6719 38.2C28.1266 37.3704 32.9605 34.36 32.6584 28.9556C32.3563 23.5511 27.8748 22.2 25.6719 22.2C23.4689 22.2 18.9875 23.5511 18.6854 28.9556ZM25.672 33.2C27.8811 33.2 29.672 31.4091 29.672 29.2C29.672 26.9908 27.8811 25.2 25.672 25.2C23.4628 25.2 21.6719 26.9908 21.6719 29.2C21.6719 31.4091 23.4628 33.2 25.672 33.2Z" fill="black"/>
</mask>
<g mask="url(#mask0_1846_147)">
<path d="M25.672 38.2L25.0316 40.0947L25.672 40.3111L26.3123 40.0947L25.672 38.2ZM26.3123 36.3053C25.3404 35.9768 23.8075 35.1729 22.5844 33.9049C21.3942 32.6709 20.5696 31.0855 20.6824 29.0672L16.6886 28.8439C16.4993 32.23 17.9405 34.852 19.7054 36.6818C21.4375 38.4775 23.5488 39.5935 25.0316 40.0947L26.3123 36.3053ZM30.6616 29.0672C30.7744 31.0855 29.9497 32.6709 28.7595 33.9049C27.5365 35.1729 26.0035 35.9768 25.0316 36.3053L26.3123 40.0947C27.7951 39.5935 29.9065 38.4775 31.6385 36.6818C33.4034 34.852 34.8446 32.23 34.6554 28.8439L30.6616 29.0672ZM25.672 24.2C26.4413 24.2 27.6885 24.4526 28.7236 25.1842C29.6717 25.8545 30.5454 26.9895 30.6616 29.0672L34.6554 28.8439C34.4694 25.517 32.9513 23.2743 31.0325 21.9179C29.2005 20.6229 27.1056 20.2 25.672 20.2V24.2ZM20.6824 29.0672C20.7985 26.9895 21.6723 25.8545 22.6204 25.1842C23.6554 24.4526 24.9027 24.2 25.672 24.2V20.2C24.2383 20.2 22.1434 20.6229 20.3114 21.9179C18.3926 23.2743 16.8746 25.517 16.6886 28.8439L20.6824 29.0672ZM27.6721 29.2C27.6721 30.3046 26.7766 31.2 25.6721 31.2V35.2C28.9858 35.2 31.6721 32.5137 31.6721 29.2H27.6721ZM25.6721 27.2C26.7766 27.2 27.6721 28.0954 27.6721 29.2H31.6721C31.6721 25.8862 28.9858 23.2 25.6721 23.2V27.2ZM23.6721 29.2C23.6721 28.0954 24.5675 27.2 25.6721 27.2V23.2C22.3583 23.2 19.6721 25.8862 19.6721 29.2H23.6721ZM25.6721 31.2C24.5675 31.2 23.6721 30.3046 23.6721 29.2H19.6721C19.6721 32.5137 22.3583 35.2 25.6721 35.2V31.2Z" fill="white"/>
</g>
</g>
</g>
<rect x="50.6719" y="13.2" width="1" height="34" fill="white"/>
<path d="M69.5119 33.4L70.4079 34.28C69.9492 34.952 69.3359 35.4853 68.5679 35.88C67.7999 36.264 66.9999 36.456 66.1679 36.456C65.3892 36.456 64.6692 36.3066 64.0079 36.008C63.3465 35.7093 62.7652 35.288 62.2639 34.744C61.7732 34.2 61.3892 33.5653 61.1119 32.84C60.8452 32.1146 60.7119 31.3306 60.7119 30.488C60.7119 29.6346 60.8505 28.8453 61.1279 28.12C61.4052 27.3946 61.7892 26.76 62.2799 26.216C62.7705 25.672 63.3519 25.2506 64.0239 24.952C64.6959 24.6533 65.4212 24.504 66.1999 24.504C67.0745 24.504 67.8692 24.6906 68.5839 25.064C69.3092 25.4373 69.9172 25.976 70.4079 26.68L69.5119 27.56C69.1172 26.9306 68.6372 26.456 68.0719 26.136C67.5172 25.816 66.8825 25.656 66.1679 25.656C65.3785 25.656 64.6692 25.864 64.0399 26.28C63.4212 26.696 62.9305 27.2666 62.5679 27.992C62.2159 28.7173 62.0399 29.5493 62.0399 30.488C62.0399 31.4053 62.2159 32.232 62.5679 32.968C62.9305 33.6933 63.4212 34.264 64.0399 34.68C64.6692 35.096 65.3785 35.304 66.1679 35.304C66.8719 35.304 67.5065 35.144 68.0719 34.824C68.6479 34.4933 69.1279 34.0186 69.5119 33.4ZM72.5319 36.2V28.328H73.7639V36.2H72.5319ZM77.5239 36.2L73.2359 32.104H73.4119L77.2519 28.328H78.8839L74.7559 32.344L74.4199 31.672L79.2519 36.2H77.5239ZM80.0463 36.2V35.144H80.7023C80.9476 35.144 81.1343 35.0693 81.2623 34.92C81.3903 34.76 81.4703 34.4826 81.5023 34.088L81.9663 28.328H87.2943V36.2H86.0623V29.176L86.2543 29.368H82.9103L83.1183 29.176L82.6703 34.264C82.6063 34.9786 82.4303 35.48 82.1423 35.768C81.8649 36.056 81.4329 36.2 80.8463 36.2H80.0463ZM96.1283 36.2H94.9603V34.664L94.9443 34.216V31.288C94.9443 30.6266 94.7416 30.104 94.3363 29.72C93.9416 29.3253 93.3976 29.128 92.7043 29.128C91.7976 29.128 91.0296 29.5066 90.4003 30.264L89.6003 29.48C90.4963 28.5413 91.5576 28.072 92.7843 28.072C93.4563 28.072 94.0429 28.2053 94.5443 28.472C95.0456 28.728 95.4349 29.096 95.7123 29.576C95.9896 30.0453 96.1283 30.6 96.1283 31.24V36.2ZM92.1763 36.456C91.6216 36.456 91.1309 36.3493 90.7043 36.136C90.2776 35.9226 89.9416 35.6293 89.6963 35.256C89.4616 34.872 89.3443 34.44 89.3443 33.96C89.3443 33.16 89.6483 32.5253 90.2563 32.056C90.8749 31.5866 91.7016 31.352 92.7363 31.352H95.0883V32.344H92.8802C92.1656 32.344 91.6109 32.4826 91.2163 32.76C90.8216 33.0266 90.6243 33.4106 90.6243 33.912C90.6243 34.3706 90.7789 34.7386 91.0883 35.016C91.4083 35.2933 91.8296 35.432 92.3523 35.432C92.8643 35.432 93.3229 35.3253 93.7283 35.112C94.1336 34.888 94.4589 34.584 94.7043 34.2C94.9496 33.8053 95.0883 33.3573 95.1203 32.856L95.5843 33.128C95.5843 33.768 95.4349 34.3386 95.1363 34.84C94.8483 35.3413 94.4483 35.736 93.9363 36.024C93.4243 36.312 92.8376 36.456 92.1763 36.456ZM97.5358 38.232V35.16H98.1918C98.3731 35.16 98.5118 35.112 98.6078 35.016C98.7144 34.92 98.7998 34.7546 98.8638 34.52C98.9278 34.2853 98.9811 33.9706 99.0238 33.576L99.5998 28.328H104.784V35.56H103.552V28.968L103.952 29.368H100.32L100.768 28.968L100.208 33.672C100.09 34.5893 99.8771 35.192 99.5678 35.48L99.4078 35.16H105.792V38.232H104.624V35.8L105.024 36.2H98.3038L98.7038 35.8V38.232H97.5358ZM115.549 36.2H114.269V25.736H115.549V36.2ZM119.101 25.896H110.717V24.76H119.101V25.896ZM125.894 36.2H124.726V34.664L124.71 34.216V31.288C124.71 30.6266 124.507 30.104 124.102 29.72C123.707 29.3253 123.163 29.128 122.47 29.128C121.563 29.128 120.795 29.5066 120.166 30.264L119.366 29.48C120.262 28.5413 121.323 28.072 122.55 28.072C123.222 28.072 123.809 28.2053 124.31 28.472C124.811 28.728 125.201 29.096 125.478 29.576C125.755 30.0453 125.894 30.6 125.894 31.24V36.2ZM121.942 36.456C121.387 36.456 120.897 36.3493 120.47 36.136C120.043 35.9226 119.707 35.6293 119.462 35.256C119.227 34.872 119.11 34.44 119.11 33.96C119.11 33.16 119.414 32.5253 120.022 32.056C120.641 31.5866 121.467 31.352 122.502 31.352H124.854V32.344H122.646C121.931 32.344 121.377 32.4826 120.982 32.76C120.587 33.0266 120.39 33.4106 120.39 33.912C120.39 34.3706 120.545 34.7386 120.854 35.016C121.174 35.2933 121.595 35.432 122.118 35.432C122.63 35.432 123.089 35.3253 123.494 35.112C123.899 34.888 124.225 34.584 124.47 34.2C124.715 33.8053 124.854 33.3573 124.886 32.856L125.35 33.128C125.35 33.768 125.201 34.3386 124.902 34.84C124.614 35.3413 124.214 35.736 123.702 36.024C123.19 36.312 122.603 36.456 121.942 36.456ZM128.469 36.2V28.328H129.701V35.864L129.397 35.16H133.253L132.949 35.864V28.328H134.181V35.864L133.877 35.16H137.733L137.429 35.864V28.328H138.661V36.2H128.469ZM141.376 36.2V28.328H142.608V36.2H141.376ZM146.368 36.2L142.08 32.104H142.256L146.096 28.328H147.728L143.6 32.344L143.264 31.672L148.096 36.2H146.368ZM155.11 33.944L155.942 34.744C155.526 35.32 155.035 35.752 154.47 36.04C153.915 36.3173 153.302 36.456 152.63 36.456C151.84 36.456 151.142 36.2746 150.534 35.912C149.936 35.5493 149.467 35.0533 149.126 34.424C148.795 33.784 148.63 33.064 148.63 32.264C148.63 31.464 148.795 30.7493 149.126 30.12C149.467 29.48 149.926 28.9786 150.502 28.616C151.088 28.2533 151.744 28.072 152.47 28.072C153.184 28.072 153.814 28.248 154.358 28.6C154.912 28.952 155.344 29.4426 155.654 30.072C155.963 30.6906 156.118 31.4053 156.118 32.216V32.312H154.87V32.2C154.87 31.2826 154.651 30.5466 154.214 29.992C153.776 29.4266 153.195 29.144 152.47 29.144C151.979 29.144 151.536 29.2773 151.142 29.544C150.758 29.8 150.454 30.1626 150.23 30.632C150.016 31.1013 149.91 31.64 149.91 32.248C149.91 32.856 150.022 33.3946 150.246 33.864C150.48 34.3333 150.806 34.7066 151.222 34.984C151.648 35.2506 152.144 35.384 152.71 35.384C153.2 35.384 153.643 35.2666 154.038 35.032C154.432 34.7973 154.79 34.4346 155.11 33.944ZM156.118 32.696H149.606V31.688H155.878L156.118 32.216V32.696ZM158.344 36.2V28.328H159.576V36.2H158.344ZM163.848 36.2V28.328H165.08V36.2H163.848ZM158.888 32.584V31.544H164.584V32.584H158.888ZM166.998 29.368V28.328H173.654V29.368H166.998ZM169.718 36.2V28.664H170.934V36.2H169.718Z" fill="white"/>
</g>
<defs>
<linearGradient id="paint0_linear_1846_147" x1="-0.00503713" y1="28.8694" x2="50.005" y2="28.8606" gradientUnits="userSpaceOnUse">
<stop offset="0.0001" stop-color="#0054AE"/>
<stop offset="0.5813" stop-color="#3A92F0"/>
</linearGradient>
<linearGradient id="paint1_linear_1846_147" x1="-0.0052323" y1="30.0211" x2="242.005" y2="29.9789" gradientUnits="userSpaceOnUse">
<stop offset="0.0001" stop-color="#0054AE"/>
<stop offset="0.5813" stop-color="#3A92F0"/>
</linearGradient>
<clipPath id="clip0_1846_147">
<rect width="242" height="79" fill="white" transform="translate(0.671875 0.199951)"/>
</clipPath>
<clipPath id="clip1_1846_147">
<rect width="24" height="24" fill="white" transform="translate(13.6719 18.2)"/>
</clipPath>
<clipPath id="clip2_1846_147">
<rect width="24" height="24" fill="white" transform="translate(13.6719 18.2)"/>
</clipPath>
</defs>
</svg>
