<svg width="21" height="21" viewBox="0 0 21 21" fill="none" xmlns="http://www.w3.org/2000/svg">
<path fill-rule="evenodd" clip-rule="evenodd" d="M10.4998 4.40005C9.61612 4.40005 8.8998 5.11639 8.8998 6.00005C8.8998 6.88371 9.61612 7.60005 10.4998 7.60005C11.3835 7.60005 12.0998 6.88371 12.0998 6.00005C12.0998 5.11639 11.3835 4.40005 10.4998 4.40005ZM7.2998 6.00005C7.2998 4.23274 8.73252 2.80005 10.4998 2.80005C12.2671 2.80005 13.6998 4.23274 13.6998 6.00005C13.6998 7.76736 12.2671 9.20005 10.4998 9.20005C8.73252 9.20005 7.2998 7.76736 7.2998 6.00005Z" fill="#333333"/>
<path fill-rule="evenodd" clip-rule="evenodd" d="M4.96081 14.806C5.31295 15.5754 6.03341 16.1557 7.0075 16.5616C8.08558 17.0108 9.37525 17.2 10.4998 17.2C11.6243 17.2 12.914 17.0108 13.9921 16.5616C14.9662 16.1557 15.6867 15.5754 16.0388 14.806C15.6755 14.0721 14.8296 13.4764 13.7126 13.0467C12.5062 12.5827 11.2037 12.4 10.4998 12.4C9.79589 12.4 8.49341 12.5827 7.28698 13.0467C6.16998 13.4764 5.32411 14.0721 4.96081 14.806ZM6.71262 11.5534C8.10622 11.0174 9.60373 10.8 10.4998 10.8C11.3959 10.8 12.8934 11.0174 14.287 11.5534C15.6472 12.0765 17.1413 12.9949 17.6588 14.5471C17.7135 14.7112 17.7135 14.8888 17.6588 15.053C17.1586 16.5535 15.927 17.4887 14.6075 18.0385C13.2856 18.5893 11.7752 18.8 10.4998 18.8C9.22429 18.8 7.71403 18.5893 6.39211 18.0385C5.07259 17.4887 3.84102 16.5535 3.34086 15.053C3.28612 14.8888 3.28612 14.7112 3.34086 14.5471C3.85824 12.9949 5.35246 12.0765 6.71262 11.5534Z" fill="#333333"/>
</svg>
