<svg width="21" height="21" viewBox="0 0 21 21" fill="none" xmlns="http://www.w3.org/2000/svg">
<mask id="mask0_1040_508" style="mask-type:luminance" maskUnits="userSpaceOnUse" x="1" y="1" width="20" height="20">
<path d="M20.1463 1.27625H1.09863V20.3239H20.1463V1.27625Z" fill="white"/>
</mask>
<g mask="url(#mask0_1040_508)">
<path fill-rule="evenodd" clip-rule="evenodd" d="M6.94671 5.23713C7.99997 4.53962 9.26221 4.1334 10.6222 4.1334C11.9822 4.1334 13.2444 4.53962 14.2977 5.23713C14.7363 5.52755 15.3272 5.40747 15.6176 4.96893C15.9081 4.53039 15.788 3.93945 15.3494 3.64904C13.9939 2.75137 12.3677 2.22864 10.6222 2.22864C8.87676 2.22864 7.25052 2.75137 5.89501 3.64903C5.45647 3.93945 5.33639 4.53039 5.6268 4.96892C5.91722 5.40747 6.50816 5.52755 6.94671 5.23713ZM5.05928 7.12456C5.34969 6.68602 5.22961 6.09508 4.79107 5.80467C4.35252 5.51425 3.76159 5.63432 3.47117 6.07287C2.57351 7.42838 2.05078 9.05462 2.05078 10.8001V15.0491V17.9796V22.2286C2.05078 22.2393 2.0508 22.2501 2.05084 22.2607C2.06774 26.8708 5.7241 30.6231 10.2964 30.794C10.4044 30.7981 10.5131 30.8001 10.6222 30.8001C15.3561 30.8001 19.1936 26.9625 19.1936 22.2286H17.2888C17.2888 25.9105 14.3041 28.8953 10.6222 28.8953C10.5265 28.8953 10.4315 28.8933 10.3368 28.8893C6.87143 28.7434 4.09015 25.952 3.96028 22.4824C3.95712 22.3983 3.95554 22.3137 3.95554 22.2286V17.9796V15.0491V10.8001C3.95554 9.44007 4.36176 8.17784 5.05928 7.12456ZM17.7732 6.07287C17.4828 5.63432 16.8919 5.51425 16.4533 5.80467C16.0148 6.09509 15.8947 6.68602 16.1851 7.12456C16.8826 8.17784 17.2888 9.44007 17.2888 10.8001C17.2888 11.3261 17.7153 11.7524 18.2412 11.7524C18.7672 11.7524 19.1936 11.3261 19.1936 10.8001C19.1936 9.05463 18.6709 7.42838 17.7732 6.07287Z" fill="#333333"/>
<path d="M10.6221 10.8V15.0858" stroke="#333333" stroke-width="1.90476" stroke-linecap="round"/>
<path d="M18.2412 17.4667V21.7524" stroke="#333333" stroke-width="1.90476" stroke-linecap="round"/>
<path d="M10.6221 18.4191V22.7048" stroke="#333333" stroke-width="1.90476" stroke-linecap="round"/>
<path d="M15.3839 21.5031C15.3839 24.0078 13.4651 26.0382 11.0982 26.0382C8.73128 26.0382 6.8125 24.0078 6.8125 21.5031V11.5258" stroke="#333333" stroke-width="1.90476" stroke-linecap="round"/>
<path d="M5.86035 21.7298C5.86035 24.2344 7.77913 26.2649 10.146 26.2649C12.513 26.2649 14.4317 24.2344 14.4317 21.7298V11.7524" stroke="#333333" stroke-width="1.90476" stroke-linecap="round"/>
<path d="M6.8125 8.89521C7.91621 6.03932 12.6879 5.02536 14.4315 8.89522" stroke="#333333" stroke-width="1.90476" stroke-linecap="round"/>
</g>
</svg>
