<svg width="18" height="20" viewBox="0 0 18 20" fill="none" xmlns="http://www.w3.org/2000/svg">
<path fill-rule="evenodd" clip-rule="evenodd" d="M3.19803 3.2545C3.08357 2.90591 2.90837 2.5519 2.68278 2.23009C2.24363 1.60364 1.54233 0.998735 0.553271 0.800049L0.178128 2.66751C0.576476 2.74752 0.892138 2.99401 1.12309 3.32347C1.27304 3.53737 1.36044 3.74798 1.40595 3.90607V5.03698V11.6742V13.0631C0.558595 13.766 0.0185547 14.8293 0.0185547 16.0194C0.0185547 17.8525 1.30008 18.3007 3.01239 18.4225C3.39553 19.2626 4.24048 19.85 5.22124 19.85C6.56217 19.85 7.6492 18.7521 7.6492 17.4112C7.6492 16.0703 6.56217 14.9725 5.22124 14.9725C4.02198 14.9725 3.02579 15.8506 2.8287 16.9954L2.70822 16.9921C1.9341 16.972 1.40596 16.9581 1.40596 16.0194C1.40596 14.6725 2.49299 13.5806 3.83392 13.5806L12.8521 13.579C12.8521 13.579 12.9342 13.579 13.056 13.5506C14.441 13.3806 15.6385 12.4605 16.1474 11.1344L16.9058 9.1583C17.8226 6.76961 16.1708 4.17428 13.6186 3.99332L3.31071 3.26249L3.19803 3.2545ZM3.31071 5.17203V11.6742H12.5908C13.3795 11.6742 14.0866 11.1882 14.3691 10.452L15.1275 8.4758C15.5859 7.28146 14.7601 5.98379 13.484 5.89332L3.31071 5.17203ZM4.69805 17.4112C4.69805 17.7111 4.94321 17.9452 5.22124 17.9452C5.49928 17.9452 5.74444 17.7111 5.74444 17.4112C5.74444 17.1113 5.49928 16.8773 5.22124 16.8773C4.94321 16.8773 4.69805 17.1113 4.69805 17.4112ZM11.4647 17.9452C11.1867 17.9452 10.9414 17.7111 10.9414 17.4112C10.9414 17.1113 11.1867 16.8773 11.4647 16.8773C11.7427 16.8773 11.9879 17.1113 11.9879 17.4112C11.9879 17.7111 11.7427 17.9452 11.4647 17.9452ZM9.0367 17.4112C9.0367 16.0703 10.1237 14.9725 11.4647 14.9725C12.8056 14.9725 13.8926 16.0703 13.8926 17.4112C13.8926 18.7521 12.8056 19.85 11.4647 19.85C10.1237 19.85 9.0367 18.7521 9.0367 17.4112Z" fill="#333333"/>
</svg>
